<svg width="20" height="20" viewBox="0 0 20 20" fill="none" xmlns="http://www.w3.org/2000/svg">
<g clip-path="url(#clip0_2026_8839)">
<path d="M0.833496 4.99999V15.8333V16.25H19.1668V3.33333H5.00016H0.833496V4.99999Z" fill="#0051BA"/>
<path d="M0.833496 3.75L10.0002 11.6667L19.1668 3.75" stroke="white" stroke-width="1.5"/>
<path d="M18.125 2.49963H1.87501C0.841067 2.49963 0 3.3407 0 4.37464V15.6246C0 16.6586 0.841067 17.4997 1.87501 17.4997H18.125C19.1589 17.4997 20 16.6586 20 15.6246V4.37464C20 3.3407 19.1589 2.49963 18.125 2.49963ZM18.75 3.74965C18.8349 3.74965 18.2595 3.71886 18.3333 3.74963L9.59045 3.74962L1.66667 3.74963C1.74052 3.7189 1.79005 3.74962 1.87497 3.74962L18.75 3.74965ZM18.125 16.2496H1.87501C1.53017 16.2496 1.24999 15.9695 1.24999 15.6246V4.1663H9.16667C9.28448 4.2682 7.91667 4.1663 10 7.9163C10.8333 3.74963 10.2989 4.26825 10.4167 4.1663H18.75V15.6246C18.75 15.9695 18.4698 16.2496 18.125 16.2496Z" fill="#0051BA"/>
</g>
<defs>
<clipPath id="clip0_2026_8839">
<rect width="20" height="20" fill="white"/>
</clipPath>
</defs>
</svg>
