<svg width="20" height="20" viewBox="0 0 20 20" fill="none" xmlns="http://www.w3.org/2000/svg">
<path d="M9.85722 9.63406C11.1808 9.63406 12.3268 9.15936 13.2633 8.22278C14.1997 7.28635 14.6744 6.14057 14.6744 4.81688C14.6744 3.49364 14.1997 2.34771 13.2631 1.41097C12.3265 0.474699 11.1806 0 9.85722 0C8.53352 0 7.38775 0.474699 6.45132 1.41113C5.51489 2.34756 5.04004 3.49349 5.04004 4.81688C5.04004 6.14057 5.51489 7.2865 6.45147 8.22293C7.38805 9.1592 8.53398 9.63406 9.85722 9.63406V9.63406Z" fill="#0051BA"/>
<path d="M18.2862 15.3788C18.2592 14.9891 18.2046 14.564 18.1242 14.1151C18.043 13.6628 17.9385 13.2353 17.8134 12.8445C17.6841 12.4406 17.5083 12.0417 17.291 11.6595C17.0655 11.2628 16.8006 10.9173 16.5034 10.6331C16.1926 10.3357 15.812 10.0966 15.372 9.92215C14.9334 9.74866 14.4474 9.66077 13.9276 9.66077C13.7234 9.66077 13.526 9.74454 13.1446 9.9928C12.91 10.1458 12.6355 10.3228 12.3291 10.5186C12.0671 10.6855 11.7121 10.8419 11.2738 10.9835C10.8461 11.1219 10.4118 11.1921 9.98318 11.1921C9.55456 11.1921 9.12045 11.1219 8.69229 10.9835C8.25437 10.8421 7.89945 10.6857 7.63776 10.5188C7.33427 10.3248 7.05961 10.1478 6.82142 9.99264C6.44056 9.74438 6.24296 9.66061 6.0388 9.66061C5.51878 9.66061 5.03295 9.74866 4.59456 9.9223C4.15481 10.0964 3.7741 10.3355 3.46297 10.6332C3.16589 10.9176 2.90084 11.2629 2.67562 11.6595C2.45849 12.0417 2.28271 12.4404 2.15332 12.8447C2.02835 13.2354 1.92383 13.6628 1.84265 14.1151C1.76224 14.5634 1.70761 14.9887 1.6806 15.3793C1.65405 15.762 1.64062 16.1592 1.64062 16.5603C1.64062 17.6043 1.9725 18.4495 2.62695 19.0728C3.27331 19.6879 4.12856 19.9999 5.1686 19.9999H14.7987C15.8387 19.9999 16.6937 19.688 17.3402 19.0728C17.9948 18.4499 18.3267 17.6046 18.3267 16.5602C18.3265 16.1572 18.3129 15.7597 18.2862 15.3788V15.3788Z" fill="#0051BA"/>
</svg>
