<svg width="20" height="20" viewBox="0 0 20 20" fill="none" xmlns="http://www.w3.org/2000/svg">
<path d="M18.125 2.49985H1.87501C0.841067 2.49985 0 3.34091 0 4.37486V15.6249C0 16.6588 0.841067 17.4999 1.87501 17.4999H18.125C19.1589 17.4999 20 16.6588 20 15.6249V4.37486C20 3.34091 19.1589 2.49985 18.125 2.49985V2.49985ZM18.125 3.74984C18.2099 3.74984 18.2907 3.76746 18.3645 3.79823L10 11.0478L1.63542 3.79823C1.70927 3.7675 1.79005 3.74984 1.87497 3.74984H18.125ZM18.125 16.2498H1.87501C1.53017 16.2498 1.24999 15.9697 1.24999 15.6248V5.11886L9.59045 12.3473C9.70826 12.4492 9.85413 12.4998 10 12.4998C10.1459 12.4998 10.2917 12.4492 10.4096 12.3473L18.75 5.11886V15.6249C18.75 15.9697 18.4698 16.2498 18.125 16.2498V16.2498Z" fill="#0051BA"/>
</svg>
