<svg width="16" height="16" viewBox="0 0 16 16" fill="none" xmlns="http://www.w3.org/2000/svg">
<path d="M15.332 7.94412C15.332 8.43504 14.9341 8.83301 14.4431 8.83301H8.83203V14.4441C8.83203 14.935 8.43406 15.333 7.94314 15.333H7.58811C7.09719 15.333 6.69922 14.935 6.69922 14.4441V8.83301H1.08811C0.597188 8.83301 0.199219 8.43504 0.199219 7.94412V7.58908C0.199219 7.09816 0.597188 6.7002 1.08811 6.7002H6.69922V1.08908C6.69922 0.598164 7.09719 0.200195 7.58811 0.200195H7.94314C8.43406 0.200195 8.83203 0.598164 8.83203 1.08908V6.7002H14.4431C14.9341 6.7002 15.332 7.09816 15.332 7.58908V7.94412Z" fill="white"/>
</svg>
