<svg width="21" height="20" viewBox="0 0 21 20" fill="none" xmlns="http://www.w3.org/2000/svg">
<g clip-path="url(#clip0_2026_8835)">
<path d="M19.9608 8.69904C19.9603 8.69858 19.9599 8.69812 19.9594 8.69766L11.801 0.539551C11.4532 0.19165 10.9909 0 10.4991 0C10.0073 0 9.54497 0.191498 9.19707 0.539398L1.04293 8.69339C1.04018 8.69614 1.03743 8.69904 1.03469 8.70178C0.320577 9.42001 0.321798 10.5853 1.0382 11.3017C1.3655 11.6292 1.79778 11.8188 2.25997 11.8387C2.27874 11.8405 2.29766 11.8414 2.31673 11.8414H2.6419V17.8453C2.6419 19.0334 3.60854 20 4.79689 20H7.98873C8.31221 20 8.57466 19.7377 8.57466 19.4141V14.707C8.57466 14.1649 9.01564 13.7239 9.55779 13.7239H11.4404C11.9826 13.7239 12.4235 14.1649 12.4235 14.707V19.4141C12.4235 19.7377 12.6858 20 13.0095 20H16.2013C17.3897 20 18.3563 19.0334 18.3563 17.8453V11.8414H18.6578C19.1495 11.8414 19.6118 11.6499 19.9599 11.302C20.677 10.5844 20.6773 9.41711 19.9608 8.69904V8.69904Z" fill="#0051BA"/>
</g>
<defs>
<clipPath id="clip0_2026_8835">
<rect width="20" height="20" fill="white" transform="translate(0.5)"/>
</clipPath>
</defs>
</svg>
