<svg width="20" height="20" viewBox="0 0 20 20" fill="none" xmlns="http://www.w3.org/2000/svg">
<g clip-path="url(#clip0_2024_8830)">
<path d="M9.85625 9.63408C11.1798 9.63408 12.3257 9.15938 13.2623 8.22279C14.1986 7.28636 14.6734 6.14058 14.6734 4.81689C14.6734 3.49365 14.1987 2.34771 13.2622 1.41098C12.3256 0.4747 11.1796 0 9.85625 0C8.53256 0 7.38678 0.4747 6.45035 1.41113C5.51392 2.34756 5.03906 3.49349 5.03906 4.81689C5.03906 6.14058 5.51392 7.28652 6.45035 8.22295C7.38708 9.15922 8.53301 9.63408 9.85625 9.63408V9.63408ZM7.2792 2.23983C7.99774 1.5213 8.84063 1.17203 9.85625 1.17203C10.8717 1.17203 11.7148 1.5213 12.4335 2.23983C13.152 2.95852 13.5014 3.80157 13.5014 4.81689C13.5014 5.83251 13.152 6.6754 12.4335 7.39409C11.7148 8.11278 10.8717 8.46205 9.85625 8.46205C8.84093 8.46205 7.99804 8.11262 7.2792 7.39409C6.56051 6.67555 6.21109 5.83251 6.21109 4.81689C6.21109 3.80157 6.56051 2.95852 7.2792 2.23983Z" fill="#0051BA"/>
<path d="M18.2863 15.3791C18.2592 14.9894 18.2046 14.5643 18.1242 14.1153C18.043 13.6631 17.9385 13.2355 17.8134 12.8448C17.684 12.4409 17.5084 12.042 17.2909 11.6598C17.0656 11.263 16.8007 10.9176 16.5034 10.6333C16.1926 10.3359 15.812 10.0968 15.372 9.92239C14.9334 9.7489 14.4475 9.66101 13.9276 9.66101C13.7234 9.66101 13.526 9.74478 13.1447 9.99304C12.91 10.1461 12.6355 10.3231 12.3291 10.5189C12.0671 10.6858 11.7122 10.8422 11.2738 10.9838C10.8461 11.1222 10.4118 11.1924 9.98305 11.1924C9.55458 11.1924 9.12032 11.1222 8.69231 10.9838C8.25438 10.8423 7.89931 10.6859 7.63778 10.519C7.33428 10.3251 7.05962 10.1481 6.82143 9.99289C6.44042 9.74463 6.24297 9.66086 6.03881 9.66086C5.51879 9.66086 5.03295 9.7489 4.59457 9.92255C4.15481 10.0966 3.7741 10.3358 3.46298 10.6335C3.16574 10.9179 2.90085 11.2632 2.67563 11.6598C2.45849 12.042 2.28271 12.4407 2.15332 12.8449C2.02835 13.2357 1.92383 13.6631 1.84265 14.1153C1.76208 14.5637 1.70761 14.9889 1.6806 15.3795C1.65405 15.7615 1.64062 16.159 1.64062 16.5606C1.64062 17.6046 1.9725 18.4498 2.62695 19.0731C3.27331 19.6882 4.12841 20 5.1686 20H14.7987C15.8386 20 16.6937 19.6882 17.3402 19.0731C17.9948 18.4502 18.3267 17.6047 18.3267 16.5604C18.3265 16.1574 18.313 15.7599 18.2863 15.3791V15.3791ZM16.5321 18.2239C16.105 18.6304 15.538 18.828 14.7986 18.828H5.1686C4.42901 18.828 3.862 18.6304 3.43506 18.2241C3.0162 17.8254 2.81265 17.2811 2.81265 16.5606C2.81265 16.1858 2.82501 15.8158 2.84973 15.4606C2.87384 15.1121 2.92312 14.7292 2.99621 14.3224C3.06839 13.9206 3.16024 13.5436 3.2695 13.2023C3.37433 12.875 3.5173 12.5509 3.69461 12.2387C3.86383 11.9411 4.05853 11.6858 4.27337 11.4802C4.47433 11.2877 4.72762 11.1303 5.02609 11.0122C5.30212 10.9029 5.61233 10.8431 5.94909 10.8341C5.99013 10.8559 6.06322 10.8976 6.18163 10.9748C6.42257 11.1318 6.70028 11.3109 7.00728 11.507C7.35335 11.7277 7.79921 11.9269 8.3319 12.0989C8.87648 12.275 9.4319 12.3644 9.9832 12.3644C10.5345 12.3644 11.0901 12.275 11.6343 12.0991C12.1675 11.9268 12.6132 11.7277 12.9597 11.5067C13.2739 11.3059 13.5438 11.132 13.7848 10.9748C13.9032 10.8977 13.9763 10.8559 14.0173 10.8341C14.3542 10.8431 14.6644 10.9029 14.9406 11.0122C15.2389 11.1303 15.4922 11.2879 15.6932 11.4802C15.908 11.6857 16.1027 11.941 16.2719 12.2388C16.4494 12.5509 16.5925 12.8751 16.6972 13.2021C16.8066 13.5439 16.8986 13.9208 16.9706 14.3223C17.0436 14.7298 17.093 15.1128 17.1171 15.4607V15.461C17.142 15.8149 17.1545 16.1847 17.1547 16.5606C17.1545 17.2812 16.951 17.8254 16.5321 18.2239V18.2239Z" fill="#0051BA"/>
</g>
<defs>
<clipPath id="clip0_2024_8830">
<rect width="20" height="20" fill="white"/>
</clipPath>
</defs>
</svg>
