<svg width="21" height="20" viewBox="0 0 21 20" fill="none" xmlns="http://www.w3.org/2000/svg">
<g clip-path="url(#clip0_1935_3621)">
<path d="M10.3563 9.63408C11.6798 9.63408 12.8257 9.15938 13.7623 8.22279C14.6986 7.28636 15.1734 6.14058 15.1734 4.81689C15.1734 3.49365 14.6987 2.34771 13.7622 1.41098C12.8256 0.4747 11.6796 0 10.3563 0C9.03256 0 7.88678 0.4747 6.95035 1.41113C6.01392 2.34756 5.53906 3.49349 5.53906 4.81689C5.53906 6.14058 6.01392 7.28652 6.95035 8.22295C7.88708 9.15922 9.03301 9.63408 10.3563 9.63408ZM7.7792 2.23983C8.49774 1.5213 9.34063 1.17203 10.3563 1.17203C11.3717 1.17203 12.2148 1.5213 12.9335 2.23983C13.652 2.95852 14.0014 3.80157 14.0014 4.81689C14.0014 5.83251 13.652 6.6754 12.9335 7.39409C12.2148 8.11278 11.3717 8.46205 10.3563 8.46205C9.34093 8.46205 8.49804 8.11263 7.7792 7.39409C7.06051 6.67555 6.71109 5.83251 6.71109 4.81689C6.71109 3.80157 7.06051 2.95852 7.7792 2.23983Z" fill="#0051BA"/>
<path d="M18.7863 15.3789C18.7592 14.9892 18.7046 14.564 18.6242 14.1151C18.543 13.6629 18.4385 13.2353 18.3134 12.8445C18.184 12.4406 18.0084 12.0418 17.7909 11.6595C17.5656 11.2628 17.3007 10.9174 17.0034 10.6331C16.6926 10.3357 16.312 10.0966 15.872 9.92218C15.4334 9.74869 14.9475 9.6608 14.4276 9.6608C14.2234 9.6608 14.026 9.74457 13.6447 9.99283C13.41 10.1459 13.1355 10.3229 12.8291 10.5186C12.5671 10.6856 12.2122 10.842 11.7738 10.9836C11.3461 11.122 10.9118 11.1922 10.483 11.1922C10.0546 11.1922 9.62032 11.122 9.19231 10.9836C8.75438 10.8421 8.39931 10.6857 8.13778 10.5188C7.83428 10.3249 7.55962 10.1479 7.32143 9.99268C6.94042 9.74442 6.74297 9.66064 6.53881 9.66064C6.01879 9.66064 5.53295 9.74869 5.09457 9.92233C4.65481 10.0964 4.2741 10.3355 3.96298 10.6332C3.66574 10.9177 3.40085 11.263 3.17563 11.6595C2.95849 12.0418 2.78271 12.4405 2.65332 12.8447C2.52835 13.2355 2.42383 13.6629 2.34265 14.1151C2.26208 14.5634 2.20761 14.9887 2.1806 15.3793C2.15405 15.7613 2.14062 16.1587 2.14062 16.5604C2.14062 17.6044 2.4725 18.4495 3.12695 19.0729C3.77331 19.6879 4.62841 19.9998 5.6686 19.9998H15.2987C16.3386 19.9998 17.1937 19.6879 17.8402 19.0729C18.4948 18.45 18.8267 17.6045 18.8267 16.5602C18.8265 16.1572 18.813 15.7597 18.7863 15.3789ZM17.0321 18.2237C16.605 18.6302 16.038 18.8278 15.2986 18.8278H5.6686C4.92901 18.8278 4.362 18.6302 3.93506 18.2239C3.5162 17.8252 3.31265 17.2809 3.31265 16.5604C3.31265 16.1856 3.32501 15.8156 3.34973 15.4603C3.37384 15.1118 3.42312 14.729 3.49621 14.3222C3.56839 13.9204 3.66024 13.5434 3.7695 13.2021C3.87433 12.8748 4.0173 12.5507 4.19461 12.2385C4.36383 11.9409 4.55853 11.6856 4.77337 11.4799C4.97433 11.2875 5.22762 11.1301 5.52609 11.012C5.80212 10.9027 6.11233 10.8429 6.44909 10.8339C6.49013 10.8557 6.56322 10.8974 6.68163 10.9746C6.92257 11.1316 7.20028 11.3107 7.50728 11.5068C7.85335 11.7274 8.29921 11.9267 8.8319 12.0987C9.37648 12.2748 9.9319 12.3642 10.4832 12.3642C11.0345 12.3642 11.5901 12.2748 12.1343 12.0988C12.6675 11.9266 13.1132 11.7274 13.4597 11.5065C13.7739 11.3057 14.0438 11.1317 14.2848 10.9746C14.4032 10.8975 14.4763 10.8557 14.5173 10.8339C14.8542 10.8429 15.1644 10.9027 15.4406 11.012C15.7389 11.1301 15.9922 11.2877 16.1932 11.4799C16.408 11.6855 16.6027 11.9408 16.7719 12.2386C16.9494 12.5507 17.0925 12.8749 17.1972 13.2019C17.3066 13.5437 17.3986 13.9206 17.4706 14.322C17.5436 14.7296 17.593 15.1126 17.6171 15.4605V15.4608C17.642 15.8147 17.6545 16.1845 17.6547 16.5604C17.6545 17.281 17.451 17.8252 17.0321 18.2237Z" fill="#0051BA"/>
</g>
<defs>
<clipPath id="clip0_1935_3621">
<rect width="20" height="20" fill="white" transform="translate(0.5)"/>
</clipPath>
</defs>
</svg>
