<svg width="20" height="20" viewBox="0 0 20 20" fill="none" xmlns="http://www.w3.org/2000/svg">
<g clip-path="url(#clip0_2024_8807)">
<mask id="path-1-inside-1_2024_8807" fill="white">
<path d="M19.4608 8.69904C19.4603 8.69858 19.4599 8.69812 19.4594 8.69766L11.301 0.539551C10.9532 0.19165 10.4909 0 9.9991 0C9.50731 0 9.04497 0.191498 8.69707 0.539398L0.542928 8.69339C0.540182 8.69614 0.537435 8.69904 0.534688 8.70178C-0.179423 9.42001 -0.178202 10.5853 0.538198 11.3017C0.865499 11.6292 1.29778 11.8188 1.75997 11.8387C1.77874 11.8405 1.79766 11.8414 1.81673 11.8414H2.1419V17.8453C2.1419 19.0334 3.10854 20 4.29689 20H7.48873C7.81221 20 8.07466 19.7377 8.07466 19.4141V14.707C8.07466 14.1649 8.51564 13.7239 9.05779 13.7239H10.9404C11.4826 13.7239 11.9235 14.1649 11.9235 14.707V19.4141C11.9235 19.7377 12.1858 20 12.5095 20H15.7013C16.8897 20 17.8563 19.0334 17.8563 17.8453V11.8414H18.1578C18.6495 11.8414 19.1118 11.6499 19.4599 11.302C20.177 10.5844 20.1773 9.41711 19.4608 8.69904V8.69904Z"/>
</mask>
<path d="M19.4594 8.69766L20.1665 7.99056L20.1665 7.99054L19.4594 8.69766ZM11.301 0.539551L10.5937 1.2465L10.5939 1.24667L11.301 0.539551ZM8.69707 0.539398L9.40417 1.24651L9.40418 1.2465L8.69707 0.539398ZM0.542928 8.69339L-0.164172 7.98628L-0.164179 7.98628L0.542928 8.69339ZM0.534688 8.70178L-0.172426 7.99468L-0.174449 7.99671L0.534688 8.70178ZM0.538198 11.3017L1.24547 10.5948L1.2453 10.5946L0.538198 11.3017ZM1.75997 11.8387L1.85707 10.8434L1.83001 10.8408L1.80285 10.8396L1.75997 11.8387ZM2.1419 11.8414H3.1419V10.8414H2.1419V11.8414ZM17.8563 11.8414V10.8414H16.8563V11.8414H17.8563ZM19.4599 11.302L20.1668 12.0093L20.1672 12.0089L19.4599 11.302ZM20.1679 7.99193C20.1666 7.99063 20.1678 7.99186 20.1665 7.99056L18.7523 9.40477C18.7529 9.4054 18.753 9.40552 18.7537 9.40614L20.1679 7.99193ZM20.1665 7.99054L12.0081 -0.167569L10.5939 1.24667L18.7523 9.40478L20.1665 7.99054ZM12.0082 -0.167401C11.4731 -0.702829 10.7563 -1 9.9991 -1V1C10.2255 1 10.4334 1.08613 10.5937 1.2465L12.0082 -0.167401ZM9.9991 -1C9.24205 -1 8.52537 -0.703112 7.98996 -0.167709L9.40418 1.2465C9.56458 1.08611 9.77258 1 9.9991 1V-1ZM7.98997 -0.167715L-0.164172 7.98628L1.25003 9.4005L9.40417 1.24651L7.98997 -0.167715ZM-0.164179 7.98628C-0.168056 7.99016 -0.171293 7.99345 -0.173487 7.99569C-0.175558 7.9978 -0.177427 7.99973 -0.177914 8.00023C-0.178801 8.00114 -0.178306 8.00063 -0.177609 7.99992C-0.17679 7.99908 -0.174927 7.99718 -0.172423 7.99468L1.2418 9.40888C1.24568 9.40501 1.24891 9.40172 1.25111 9.39948C1.25318 9.39737 1.25504 9.39544 1.25553 9.39494C1.25642 9.39403 1.25592 9.39454 1.25522 9.39526C1.2544 9.39609 1.25254 9.39799 1.25004 9.4005L-0.164179 7.98628ZM-0.174449 7.99671C-1.27693 9.10555 -1.27528 10.9025 -0.168909 12.0088L1.2453 10.5946C0.918877 10.2682 0.918081 9.73448 1.24383 9.40685L-0.174449 7.99671ZM-0.169074 12.0087C0.335638 12.5136 1.00516 12.8072 1.71709 12.8378L1.80285 10.8396C1.5904 10.8305 1.39536 10.7447 1.24547 10.5948L-0.169074 12.0087ZM1.66287 12.834C1.71428 12.839 1.76561 12.8414 1.81673 12.8414V10.8414C1.82971 10.8414 1.8432 10.8421 1.85707 10.8434L1.66287 12.834ZM1.81673 12.8414H2.1419V10.8414H1.81673V12.8414ZM1.1419 11.8414V17.8453H3.1419V11.8414H1.1419ZM1.1419 17.8453C1.1419 19.5857 2.55635 21 4.29689 21V19C3.66073 19 3.1419 18.481 3.1419 17.8453H1.1419ZM4.29689 21H7.48873V19H4.29689V21ZM7.48873 21C8.36433 21 9.07466 20.2902 9.07466 19.4141H7.07466C7.07466 19.1852 7.2601 19 7.48873 19V21ZM9.07466 19.4141V14.707H7.07466V19.4141H9.07466ZM9.07466 14.707C9.07466 14.7082 9.07424 14.7114 9.07282 14.7148C9.07169 14.7175 9.07056 14.7187 9.07003 14.7193C9.0695 14.7198 9.06822 14.7209 9.06554 14.7221C9.06219 14.7235 9.05894 14.7239 9.05779 14.7239V12.7239C7.96336 12.7239 7.07466 13.6126 7.07466 14.707H9.07466ZM9.05779 14.7239H10.9404V12.7239H9.05779V14.7239ZM10.9404 14.7239C10.9393 14.7239 10.936 14.7235 10.9327 14.7221C10.93 14.7209 10.9287 14.7198 10.9282 14.7193C10.9276 14.7187 10.9265 14.7175 10.9254 14.7148C10.924 14.7114 10.9235 14.7082 10.9235 14.707H12.9235C12.9235 13.6126 12.0348 12.7239 10.9404 12.7239V14.7239ZM10.9235 14.707V19.4141H12.9235V14.707H10.9235ZM10.9235 19.4141C10.9235 20.29 11.6336 21 12.5095 21V19C12.7381 19 12.9235 19.1854 12.9235 19.4141H10.9235ZM12.5095 21H15.7013V19H12.5095V21ZM15.7013 21C17.4419 21 18.8563 19.5857 18.8563 17.8453H16.8563C16.8563 18.481 16.3375 19 15.7013 19V21ZM18.8563 17.8453V11.8414H16.8563V17.8453H18.8563ZM17.8563 12.8414H18.1578V10.8414H17.8563V12.8414ZM18.1578 12.8414C18.9148 12.8414 19.6314 12.5445 20.1668 12.0093L18.7529 10.5948C18.5922 10.7554 18.3841 10.8414 18.1578 10.8414V12.8414ZM20.1672 12.0089C21.2744 10.901 21.2748 9.10125 20.1686 7.99268L18.7529 9.40539C19.0798 9.73298 19.0796 10.2679 18.7525 10.5952L20.1672 12.0089Z" fill="#0051BA" mask="url(#path-1-inside-1_2024_8807)"/>
</g>
<defs>
<clipPath id="clip0_2024_8807">
<rect width="20" height="20" fill="white"/>
</clipPath>
</defs>
</svg>
