<svg width="22" height="22" viewBox="0 0 22 22" fill="none" xmlns="http://www.w3.org/2000/svg">
<path d="M11 20.7761C10.6868 20.7761 10.3848 20.6626 10.1495 20.4565C9.26075 19.6794 8.40389 18.9491 7.64791 18.3049L7.64405 18.3015C5.42764 16.4127 3.51369 14.7816 2.182 13.1748C0.693373 11.3785 0 9.67535 0 7.81477C0 6.00706 0.619856 4.33934 1.74527 3.11859C2.8841 1.88341 4.44675 1.20312 6.14586 1.20312C7.41578 1.20312 8.57879 1.60461 9.60248 2.39635C10.1191 2.79599 10.5874 3.2851 11 3.85561C11.4127 3.2851 11.8808 2.79599 12.3976 2.39635C13.4213 1.60461 14.5843 1.20312 15.8543 1.20312C17.5532 1.20312 19.116 1.88341 20.2548 3.11859C21.3803 4.33934 21.9999 6.00706 21.9999 7.81477C21.9999 9.67535 21.3067 11.3785 19.8181 13.1746C18.4864 14.7816 16.5726 16.4126 14.3566 18.3012C13.5992 18.9464 12.741 19.6778 11.8503 20.4568C11.6151 20.6626 11.313 20.7761 11 20.7761ZM7.5 6.5C6.16512 6.5 5.8921 6.03253 5 7C4.09464 7.98207 4.71144 9.18523 2 8.5C2 10.0648 5.196 7.92661 6.5 9.5C7.76036 11.0209 8.82938 13.6502 11 15.5L9.5 17C11.1657 17.3321 10.1028 18.704 10.9981 19.4868C11.8988 18.7025 12.7603 17.9682 13.5207 17.3204C15.6911 15.4706 17.5656 13.8734 18.826 12.3525C20.1298 10.7791 20.7114 9.37961 20.7114 7.81477C20.7114 6.33168 18.9054 7.48207 18 6.5C17.1081 5.53253 17.189 5.5 15.8543 5.5C14.8764 5.5 13 7 14 3.85561C13.2935 4.40211 20.7114 6 20.2548 6.5C24 11.5 11.2873 19.4868 10.9981 19.4868C10.7089 19.4868 1.47563 8.74858 1.32725 8.5C1.03889 8.0166 9.52074 3.96219 8.81411 3.41568C10 5 8.4777 6.5 7.5 6.5Z" fill="#0051BA"/>
</svg>
